<svg xmlns="http://www.w3.org/2000/svg" xmlns:xlink="http://www.w3.org/1999/xlink" width="500" zoomAndPan="magnify" viewBox="0 0 375 374.999991" height="500" preserveAspectRatio="xMidYMid meet" version="1.0"><defs><g/><clipPath id="046a566f5f"><path d="M 102.25 102.378906 L 272.5 102.378906 L 272.5 149.628906 L 102.25 149.628906 Z M 102.25 102.378906 " clip-rule="nonzero"/></clipPath><clipPath id="e11e7e8dd7"><path d="M 102.25 218.679688 L 272.5 218.679688 L 272.5 272.5 L 102.25 272.5 Z M 102.25 218.679688 " clip-rule="nonzero"/></clipPath></defs><g clip-path="url(#046a566f5f)"><path fill="#000000" d="M 187.375 272.628906 C 140.449219 272.628906 102.25 234.425781 102.25 187.503906 C 102.25 140.578125 140.449219 102.378906 187.375 102.378906 C 234.296875 102.378906 272.5 140.578125 272.5 187.503906 C 272.5 234.425781 234.296875 272.628906 187.375 272.628906 Z M 187.375 103.636719 C 141.121094 103.636719 103.507812 141.25 103.507812 187.503906 C 103.507812 233.753906 141.121094 271.371094 187.375 271.371094 C 233.628906 271.371094 271.242188 233.753906 271.242188 187.503906 C 271.242188 141.25 233.628906 103.636719 187.375 103.636719 Z M 187.375 103.636719 " fill-opacity="1" fill-rule="nonzero"/></g><g clip-path="url(#e11e7e8dd7)"><path fill="#000000" d="M 187.375 272.5 C 140.449219 272.5 102.25 234.296875 102.25 187.375 C 102.25 140.449219 140.449219 102.25 187.375 102.25 C 234.296875 102.25 272.5 140.449219 272.5 187.375 C 272.5 234.296875 234.296875 272.5 187.375 272.5 Z M 187.375 103.507812 C 141.121094 103.507812 103.507812 141.121094 103.507812 187.375 C 103.507812 233.628906 141.121094 271.242188 187.375 271.242188 C 233.628906 271.242188 271.242188 233.628906 271.242188 187.375 C 271.242188 141.121094 233.628906 103.507812 187.375 103.507812 Z M 187.375 103.507812 " fill-opacity="1" fill-rule="nonzero"/></g><g fill="#000000" fill-opacity="1"><g transform="translate(99.470434, 200.999987)"><g><path d="M 1.6875 -39.3125 L 6.9375 -39.3125 L 6.9375 -33.375 C 7.570312 -35.238281 8.71875 -36.710938 10.375 -37.796875 C 12.039062 -38.878906 13.9375 -39.53125 16.0625 -39.75 C 18.195312 -39.976562 20.410156 -39.75 22.703125 -39.0625 C 25.003906 -38.375 27.113281 -37.207031 29.03125 -35.5625 C 30.957031 -33.914062 32.535156 -31.773438 33.765625 -29.140625 C 34.992188 -26.515625 35.609375 -23.351562 35.609375 -19.65625 C 35.609375 -16.03125 35.019531 -12.929688 33.84375 -10.359375 C 32.675781 -7.785156 31.046875 -5.6875 28.953125 -4.0625 C 26.859375 -2.4375 24.390625 -1.25 21.546875 -0.5 C 18.710938 0.238281 15.632812 0.609375 12.3125 0.609375 C 10.675781 0.609375 9 0.515625 7.28125 0.328125 C 5.5625 0.148438 3.863281 0.0390625 2.1875 0 L 1.6875 0 L 1.6875 -0.5 C 1.757812 -0.5 1.867188 -0.554688 2.015625 -0.671875 C 2.160156 -0.785156 2.296875 -0.988281 2.421875 -1.28125 C 2.554688 -1.582031 2.679688 -2.019531 2.796875 -2.59375 C 2.910156 -3.175781 2.96875 -3.914062 2.96875 -4.8125 L 2.96875 -34.5 C 2.96875 -35.425781 2.910156 -36.171875 2.796875 -36.734375 C 2.679688 -37.296875 2.554688 -37.722656 2.421875 -38.015625 C 2.296875 -38.316406 2.160156 -38.523438 2.015625 -38.640625 C 1.867188 -38.753906 1.757812 -38.8125 1.6875 -38.8125 Z M 31.703125 -19.65625 C 31.703125 -23.5 31.09375 -26.742188 29.875 -29.390625 C 28.664062 -32.046875 27.132812 -34.128906 25.28125 -35.640625 C 23.4375 -37.148438 21.445312 -38.128906 19.3125 -38.578125 C 17.1875 -39.023438 15.195312 -39 13.34375 -38.5 C 11.5 -38 9.96875 -37.046875 8.75 -35.640625 C 7.539062 -34.242188 6.9375 -32.441406 6.9375 -30.234375 L 6.9375 -0.21875 C 7.875 -0.144531 8.789062 -0.0703125 9.6875 0 C 10.582031 0.0703125 11.457031 0.109375 12.3125 0.109375 C 15.375 0.109375 18.097656 -0.34375 20.484375 -1.25 C 22.878906 -2.164062 24.90625 -3.472656 26.5625 -5.171875 C 28.226562 -6.878906 29.5 -8.953125 30.375 -11.390625 C 31.257812 -13.835938 31.703125 -16.59375 31.703125 -19.65625 Z M 31.703125 -19.65625 "/></g></g></g><g fill="#000000" fill-opacity="1"><g transform="translate(136.761222, 200.999987)"><g><path d="M 25.140625 0 L 19.984375 0 L 19.984375 -14.453125 C 19.722656 -12.765625 19.40625 -11.226562 19.03125 -9.84375 C 18.664062 -8.46875 18.238281 -7.238281 17.75 -6.15625 C 17.375 -5.375 16.941406 -4.609375 16.453125 -3.859375 C 15.972656 -3.117188 15.40625 -2.4375 14.75 -1.8125 C 14.101562 -1.195312 13.394531 -0.703125 12.625 -0.328125 C 11.863281 0.0351562 11.015625 0.21875 10.078125 0.21875 C 8.546875 0.21875 7.300781 -0.0976562 6.34375 -0.734375 C 5.394531 -1.367188 4.648438 -2.1875 4.109375 -3.1875 C 3.566406 -4.195312 3.191406 -5.335938 2.984375 -6.609375 C 2.785156 -7.878906 2.6875 -9.148438 2.6875 -10.421875 L 2.6875 -22.171875 C 2.6875 -23.109375 2.628906 -23.851562 2.515625 -24.40625 C 2.410156 -24.96875 2.289062 -25.398438 2.15625 -25.703125 C 2.019531 -26.003906 1.878906 -26.207031 1.734375 -26.3125 C 1.585938 -26.425781 1.476562 -26.484375 1.40625 -26.484375 L 1.40625 -26.984375 L 6.609375 -26.984375 L 6.609375 -10.421875 C 6.609375 -9.742188 6.644531 -8.925781 6.71875 -7.96875 C 6.789062 -7.019531 6.945312 -6.085938 7.1875 -5.171875 C 7.4375 -4.265625 7.789062 -3.4375 8.25 -2.6875 C 8.71875 -1.9375 9.347656 -1.429688 10.140625 -1.171875 C 10.921875 -0.910156 11.679688 -0.910156 12.421875 -1.171875 C 13.171875 -1.429688 13.851562 -1.84375 14.46875 -2.40625 C 15.09375 -2.96875 15.644531 -3.601562 16.125 -4.3125 C 16.613281 -5.019531 17.003906 -5.691406 17.296875 -6.328125 C 18.117188 -8.117188 18.769531 -10.3125 19.25 -12.90625 C 19.738281 -15.5 19.984375 -18.585938 19.984375 -22.171875 C 19.984375 -23.109375 19.925781 -23.851562 19.8125 -24.40625 C 19.707031 -24.96875 19.585938 -25.398438 19.453125 -25.703125 C 19.328125 -26.003906 19.1875 -26.207031 19.03125 -26.3125 C 18.882812 -26.425781 18.773438 -26.484375 18.703125 -26.484375 L 18.703125 -26.984375 L 23.859375 -26.984375 L 23.859375 -4.8125 C 23.859375 -3.882812 23.90625 -3.140625 24 -2.578125 C 24.09375 -2.015625 24.210938 -1.570312 24.359375 -1.25 C 24.503906 -0.9375 24.648438 -0.734375 24.796875 -0.640625 C 24.953125 -0.546875 25.066406 -0.5 25.140625 -0.5 Z M 25.140625 0 "/></g></g></g><g fill="#000000" fill-opacity="1"><g transform="translate(163.30151, 200.999987)"><g><path d="M 1.90625 -10.25 C 1.414062 -12.070312 1.300781 -13.878906 1.5625 -15.671875 C 1.820312 -17.472656 2.390625 -19.128906 3.265625 -20.640625 C 4.148438 -22.148438 5.300781 -23.460938 6.71875 -24.578125 C 8.132812 -25.703125 9.757812 -26.503906 11.59375 -26.984375 C 13.425781 -27.472656 15.238281 -27.585938 17.03125 -27.328125 C 18.820312 -27.066406 20.476562 -26.492188 22 -25.609375 C 23.53125 -24.734375 24.851562 -23.585938 25.96875 -22.171875 C 27.09375 -20.753906 27.898438 -19.128906 28.390625 -17.296875 C 28.878906 -15.472656 28.992188 -13.664062 28.734375 -11.875 C 28.472656 -10.082031 27.898438 -8.425781 27.015625 -6.90625 C 26.140625 -5.394531 24.992188 -4.078125 23.578125 -2.953125 C 22.160156 -1.835938 20.535156 -1.039062 18.703125 -0.5625 C 16.867188 -0.0703125 15.054688 0.0390625 13.265625 -0.21875 C 11.472656 -0.476562 9.8125 -1.046875 8.28125 -1.921875 C 6.75 -2.804688 5.421875 -3.957031 4.296875 -5.375 C 3.179688 -6.789062 2.382812 -8.414062 1.90625 -10.25 Z M 24.578125 -16.296875 C 24.210938 -17.640625 23.632812 -19.007812 22.84375 -20.40625 C 22.0625 -21.8125 21.109375 -23.046875 19.984375 -24.109375 C 18.867188 -25.171875 17.601562 -25.953125 16.1875 -26.453125 C 14.769531 -26.960938 13.273438 -27.007812 11.703125 -26.59375 C 10.140625 -26.1875 8.878906 -25.410156 7.921875 -24.265625 C 6.972656 -23.128906 6.273438 -21.820312 5.828125 -20.34375 C 5.378906 -18.875 5.15625 -17.328125 5.15625 -15.703125 C 5.15625 -14.078125 5.34375 -12.59375 5.71875 -11.25 C 6.082031 -9.90625 6.65625 -8.523438 7.4375 -7.109375 C 8.226562 -5.691406 9.179688 -4.457031 10.296875 -3.40625 C 11.421875 -2.363281 12.691406 -1.582031 14.109375 -1.0625 C 15.523438 -0.539062 17.019531 -0.503906 18.59375 -0.953125 C 20.15625 -1.359375 21.421875 -2.128906 22.390625 -3.265625 C 23.367188 -4.410156 24.082031 -5.71875 24.53125 -7.1875 C 24.976562 -8.664062 25.191406 -10.21875 25.171875 -11.84375 C 25.148438 -13.46875 24.953125 -14.953125 24.578125 -16.296875 Z M 24.578125 -16.296875 "/></g></g></g><g fill="#000000" fill-opacity="1"><g transform="translate(193.593276, 200.999987)"><g><path d="M 35.34375 -12.828125 C 35.34375 -14.054688 35.15625 -15.023438 34.78125 -15.734375 C 34.40625 -16.441406 33.9375 -16.972656 33.375 -17.328125 C 32.8125 -17.679688 32.175781 -17.914062 31.46875 -18.03125 C 30.757812 -18.144531 30.050781 -18.203125 29.34375 -18.203125 L 25.765625 -18.203125 L 25.765625 -18.703125 L 40.59375 -18.703125 L 40.59375 -18.203125 C 40.300781 -18.203125 40.085938 -18.03125 39.953125 -17.6875 C 39.828125 -17.351562 39.734375 -16.9375 39.671875 -16.4375 C 39.617188 -15.9375 39.570312 -15.40625 39.53125 -14.84375 C 39.5 -14.28125 39.425781 -13.773438 39.3125 -13.328125 C 38.632812 -10.304688 37.375 -7.785156 35.53125 -5.765625 C 33.6875 -3.753906 31.539062 -2.242188 29.09375 -1.234375 C 26.644531 -0.222656 24.039062 0.25 21.28125 0.1875 C 18.519531 0.132812 15.882812 -0.429688 13.375 -1.515625 C 10.875 -2.597656 8.632812 -4.21875 6.65625 -6.375 C 4.6875 -8.539062 3.269531 -11.25 2.40625 -14.5 C 1.695312 -17.15625 1.53125 -19.785156 1.90625 -22.390625 C 2.28125 -25.003906 3.097656 -27.410156 4.359375 -29.609375 C 5.628906 -31.816406 7.300781 -33.734375 9.375 -35.359375 C 11.445312 -36.984375 13.8125 -38.148438 16.46875 -38.859375 C 18.363281 -39.378906 20.265625 -39.601562 22.171875 -39.53125 C 24.078125 -39.457031 25.90625 -39.140625 27.65625 -38.578125 C 29.414062 -38.023438 31.066406 -37.234375 32.609375 -36.203125 C 34.160156 -35.171875 35.535156 -33.945312 36.734375 -32.53125 L 35.390625 -27.609375 L 34.890625 -27.609375 C 34.023438 -29.328125 32.957031 -30.957031 31.6875 -32.5 C 30.425781 -34.050781 29.007812 -35.347656 27.4375 -36.390625 C 25.875 -37.441406 24.175781 -38.171875 22.34375 -38.578125 C 20.507812 -38.992188 18.585938 -38.941406 16.578125 -38.421875 C 14.148438 -37.785156 12.148438 -36.644531 10.578125 -35 C 9.015625 -33.351562 7.820312 -31.457031 7 -29.3125 C 6.175781 -27.164062 5.71875 -24.878906 5.625 -22.453125 C 5.53125 -20.023438 5.765625 -17.726562 6.328125 -15.5625 C 7.078125 -12.800781 8.1875 -10.445312 9.65625 -8.5 C 11.132812 -6.5625 12.804688 -5.003906 14.671875 -3.828125 C 16.535156 -2.660156 18.519531 -1.878906 20.625 -1.484375 C 22.738281 -1.085938 24.804688 -1.078125 26.828125 -1.453125 C 28.734375 -1.867188 30.242188 -2.492188 31.359375 -3.328125 C 32.484375 -4.171875 33.332031 -5.125 33.90625 -6.1875 C 34.488281 -7.25 34.875 -8.359375 35.0625 -9.515625 C 35.25 -10.671875 35.34375 -11.773438 35.34375 -12.828125 Z M 35.34375 -12.828125 "/></g></g></g><g fill="#000000" fill-opacity="1"><g transform="translate(235.86737, 200.999987)"><g><path d="M 7.953125 0 L 1.453125 0 L 1.453125 -0.5 C 1.523438 -0.5 1.632812 -0.546875 1.78125 -0.640625 C 1.9375 -0.734375 2.078125 -0.9375 2.203125 -1.25 C 2.335938 -1.570312 2.460938 -2.015625 2.578125 -2.578125 C 2.691406 -3.140625 2.75 -3.882812 2.75 -4.8125 L 2.75 -35.609375 C 2.59375 -36.585938 2.394531 -37.222656 2.15625 -37.515625 C 1.914062 -37.816406 1.71875 -37.96875 1.5625 -37.96875 L 1.40625 -38.46875 L 6.65625 -40.4375 L 6.65625 -4.8125 C 6.65625 -3.882812 6.703125 -3.140625 6.796875 -2.578125 C 6.890625 -2.015625 7.007812 -1.570312 7.15625 -1.25 C 7.3125 -0.9375 7.460938 -0.734375 7.609375 -0.640625 C 7.765625 -0.546875 7.878906 -0.5 7.953125 -0.5 Z M 7.953125 0 "/></g></g></g><g fill="#000000" fill-opacity="1"><g transform="translate(245.218062, 200.999987)"><g><path d="M 1.90625 -10.25 C 1.414062 -12.070312 1.300781 -13.878906 1.5625 -15.671875 C 1.820312 -17.472656 2.390625 -19.128906 3.265625 -20.640625 C 4.148438 -22.148438 5.300781 -23.460938 6.71875 -24.578125 C 8.132812 -25.703125 9.757812 -26.503906 11.59375 -26.984375 C 13.425781 -27.472656 15.238281 -27.585938 17.03125 -27.328125 C 18.820312 -27.066406 20.476562 -26.492188 22 -25.609375 C 23.53125 -24.734375 24.851562 -23.585938 25.96875 -22.171875 C 27.09375 -20.753906 27.898438 -19.128906 28.390625 -17.296875 C 28.878906 -15.472656 28.992188 -13.664062 28.734375 -11.875 C 28.472656 -10.082031 27.898438 -8.425781 27.015625 -6.90625 C 26.140625 -5.394531 24.992188 -4.078125 23.578125 -2.953125 C 22.160156 -1.835938 20.535156 -1.039062 18.703125 -0.5625 C 16.867188 -0.0703125 15.054688 0.0390625 13.265625 -0.21875 C 11.472656 -0.476562 9.8125 -1.046875 8.28125 -1.921875 C 6.75 -2.804688 5.421875 -3.957031 4.296875 -5.375 C 3.179688 -6.789062 2.382812 -8.414062 1.90625 -10.25 Z M 24.578125 -16.296875 C 24.210938 -17.640625 23.632812 -19.007812 22.84375 -20.40625 C 22.0625 -21.8125 21.109375 -23.046875 19.984375 -24.109375 C 18.867188 -25.171875 17.601562 -25.953125 16.1875 -26.453125 C 14.769531 -26.960938 13.273438 -27.007812 11.703125 -26.59375 C 10.140625 -26.1875 8.878906 -25.410156 7.921875 -24.265625 C 6.972656 -23.128906 6.273438 -21.820312 5.828125 -20.34375 C 5.378906 -18.875 5.15625 -17.328125 5.15625 -15.703125 C 5.15625 -14.078125 5.34375 -12.59375 5.71875 -11.25 C 6.082031 -9.90625 6.65625 -8.523438 7.4375 -7.109375 C 8.226562 -5.691406 9.179688 -4.457031 10.296875 -3.40625 C 11.421875 -2.363281 12.691406 -1.582031 14.109375 -1.0625 C 15.523438 -0.539062 17.019531 -0.503906 18.59375 -0.953125 C 20.15625 -1.359375 21.421875 -2.128906 22.390625 -3.265625 C 23.367188 -4.410156 24.082031 -5.71875 24.53125 -7.1875 C 24.976562 -8.664062 25.191406 -10.21875 25.171875 -11.84375 C 25.148438 -13.46875 24.953125 -14.953125 24.578125 -16.296875 Z M 24.578125 -16.296875 "/></g></g></g><g fill="#000000" fill-opacity="1"><g transform="translate(121.64699, 115.933002)"><g><path d="M -5.140625 -8.5625 L -1.65625 -11.6875 C -1.476562 -11.851562 -1.273438 -11.929688 -1.046875 -11.921875 C -0.828125 -11.921875 -0.632812 -11.832031 -0.46875 -11.65625 C -0.3125 -11.476562 -0.242188 -11.28125 -0.265625 -11.0625 C -0.296875 -10.84375 -0.398438 -10.648438 -0.578125 -10.484375 L -3.5 -7.859375 L -3.5625 -8.140625 L -1.734375 -6.109375 L -1.890625 -6.109375 L 0.546875 -8.3125 C 0.722656 -8.46875 0.921875 -8.539062 1.140625 -8.53125 C 1.367188 -8.53125 1.566406 -8.441406 1.734375 -8.265625 C 1.878906 -8.097656 1.941406 -7.90625 1.921875 -7.6875 C 1.898438 -7.46875 1.800781 -7.28125 1.625 -7.125 L -0.78125 -4.953125 L -0.8125 -5.078125 L 1.078125 -2.984375 L 0.921875 -3 L 3.828125 -5.609375 C 4.003906 -5.773438 4.207031 -5.851562 4.4375 -5.84375 C 4.664062 -5.832031 4.851562 -5.742188 5 -5.578125 C 5.15625 -5.410156 5.222656 -5.210938 5.203125 -4.984375 C 5.179688 -4.765625 5.082031 -4.570312 4.90625 -4.40625 L 1.421875 -1.28125 C 1.242188 -1.113281 1.035156 -1.035156 0.796875 -1.046875 C 0.566406 -1.054688 0.367188 -1.15625 0.203125 -1.34375 L -5.203125 -7.359375 C -5.367188 -7.535156 -5.441406 -7.738281 -5.421875 -7.96875 C -5.410156 -8.195312 -5.316406 -8.394531 -5.140625 -8.5625 Z M -5.140625 -8.5625 "/></g></g></g><g fill="#000000" fill-opacity="1"><g transform="translate(134.695847, 105.257848)"><g><path d="M 3.65625 -2.0625 C 3.101562 -1.726562 2.5625 -1.492188 2.03125 -1.359375 C 1.5 -1.222656 0.921875 -1.207031 0.296875 -1.3125 C 0.128906 -1.332031 -0.0078125 -1.382812 -0.125 -1.46875 C -0.25 -1.550781 -0.34375 -1.644531 -0.40625 -1.75 C -0.519531 -1.9375 -0.554688 -2.132812 -0.515625 -2.34375 C -0.472656 -2.5625 -0.347656 -2.734375 -0.140625 -2.859375 C 0.015625 -2.953125 0.175781 -2.992188 0.34375 -2.984375 C 0.800781 -2.910156 1.21875 -2.898438 1.59375 -2.953125 C 1.976562 -3.015625 2.382812 -3.175781 2.8125 -3.4375 C 3.113281 -3.625 3.359375 -3.835938 3.546875 -4.078125 C 3.734375 -4.328125 3.851562 -4.578125 3.90625 -4.828125 C 3.96875 -5.078125 3.9375 -5.300781 3.8125 -5.5 C 3.664062 -5.738281 3.46875 -5.894531 3.21875 -5.96875 C 2.96875 -6.039062 2.660156 -6.046875 2.296875 -5.984375 C 1.941406 -5.921875 1.515625 -5.78125 1.015625 -5.5625 C 0.546875 -5.363281 0.109375 -5.226562 -0.296875 -5.15625 C -0.703125 -5.09375 -1.070312 -5.09375 -1.40625 -5.15625 C -1.75 -5.226562 -2.0625 -5.367188 -2.34375 -5.578125 C -2.625 -5.785156 -2.867188 -6.0625 -3.078125 -6.40625 C -3.398438 -6.925781 -3.539062 -7.445312 -3.5 -7.96875 C -3.457031 -8.5 -3.265625 -9 -2.921875 -9.46875 C -2.585938 -9.9375 -2.144531 -10.335938 -1.59375 -10.671875 C -1.070312 -10.984375 -0.546875 -11.195312 -0.015625 -11.3125 C 0.515625 -11.4375 1 -11.46875 1.4375 -11.40625 C 1.78125 -11.363281 2.023438 -11.222656 2.171875 -10.984375 C 2.273438 -10.796875 2.300781 -10.585938 2.25 -10.359375 C 2.195312 -10.140625 2.082031 -9.976562 1.90625 -9.875 C 1.78125 -9.789062 1.648438 -9.753906 1.515625 -9.765625 C 1.328125 -9.796875 1.09375 -9.796875 0.8125 -9.765625 C 0.539062 -9.742188 0.265625 -9.691406 -0.015625 -9.609375 C -0.296875 -9.535156 -0.539062 -9.4375 -0.75 -9.3125 C -1.09375 -9.101562 -1.351562 -8.878906 -1.53125 -8.640625 C -1.71875 -8.410156 -1.820312 -8.179688 -1.84375 -7.953125 C -1.875 -7.734375 -1.832031 -7.523438 -1.71875 -7.328125 C -1.5625 -7.085938 -1.363281 -6.929688 -1.125 -6.859375 C -0.894531 -6.796875 -0.625 -6.796875 -0.3125 -6.859375 C 0 -6.929688 0.363281 -7.039062 0.78125 -7.1875 C 1.3125 -7.40625 1.796875 -7.5625 2.234375 -7.65625 C 2.671875 -7.75 3.066406 -7.773438 3.421875 -7.734375 C 3.773438 -7.703125 4.097656 -7.578125 4.390625 -7.359375 C 4.679688 -7.148438 4.953125 -6.84375 5.203125 -6.4375 C 5.515625 -5.914062 5.640625 -5.382812 5.578125 -4.84375 C 5.523438 -4.300781 5.328125 -3.785156 4.984375 -3.296875 C 4.640625 -2.804688 4.195312 -2.394531 3.65625 -2.0625 Z M 3.65625 -2.0625 "/></g></g></g><g fill="#000000" fill-opacity="1"><g transform="translate(149.765502, 96.987688)"><g><path d="M 4.09375 -1.546875 C 3.84375 -1.453125 3.609375 -1.445312 3.390625 -1.53125 C 3.179688 -1.625 3.035156 -1.785156 2.953125 -2.015625 L 0.078125 -9.609375 L 1.78125 -10.265625 L 4.65625 -2.671875 C 4.738281 -2.441406 4.726562 -2.21875 4.625 -2 C 4.519531 -1.789062 4.34375 -1.640625 4.09375 -1.546875 Z M -1.6875 -8.109375 C -1.925781 -8.023438 -2.148438 -8.023438 -2.359375 -8.109375 C -2.566406 -8.191406 -2.710938 -8.347656 -2.796875 -8.578125 C -2.878906 -8.796875 -2.867188 -9.003906 -2.765625 -9.203125 C -2.671875 -9.398438 -2.503906 -9.539062 -2.265625 -9.625 L 3.53125 -11.8125 C 3.769531 -11.90625 3.988281 -11.910156 4.1875 -11.828125 C 4.394531 -11.742188 4.546875 -11.585938 4.640625 -11.359375 C 4.722656 -11.128906 4.710938 -10.914062 4.609375 -10.71875 C 4.515625 -10.53125 4.347656 -10.390625 4.109375 -10.296875 Z M -1.6875 -8.109375 "/></g></g></g><g fill="#000000" fill-opacity="1"><g transform="translate(166.45312, 91.536307)"><g><path d="M 0.3125 -9.984375 C 0.53125 -10.015625 0.738281 -9.960938 0.9375 -9.828125 C 1.132812 -9.703125 1.253906 -9.519531 1.296875 -9.28125 L 2.625 -1.296875 C 2.664062 -1.054688 2.609375 -0.84375 2.453125 -0.65625 C 2.304688 -0.46875 2.117188 -0.351562 1.890625 -0.3125 C 1.640625 -0.269531 1.421875 -0.316406 1.234375 -0.453125 C 1.046875 -0.585938 0.929688 -0.773438 0.890625 -1.015625 L -0.4375 -9 C -0.476562 -9.238281 -0.425781 -9.445312 -0.28125 -9.625 C -0.144531 -9.8125 0.0507812 -9.929688 0.3125 -9.984375 Z M 6.421875 -10.984375 C 6.691406 -11.035156 6.914062 -10.992188 7.09375 -10.859375 C 7.269531 -10.734375 7.378906 -10.550781 7.421875 -10.3125 L 8.75 -2.328125 C 8.789062 -2.085938 8.742188 -1.875 8.609375 -1.6875 C 8.484375 -1.5 8.285156 -1.378906 8.015625 -1.328125 C 7.785156 -1.296875 7.570312 -1.34375 7.375 -1.46875 C 7.1875 -1.601562 7.070312 -1.789062 7.03125 -2.03125 L 5.703125 -10.015625 C 5.660156 -10.253906 5.710938 -10.46875 5.859375 -10.65625 C 6.003906 -10.84375 6.191406 -10.953125 6.421875 -10.984375 Z M 0.9375 -5.953125 L 7.09375 -6.96875 L 7.359375 -5.375 L 1.203125 -4.359375 Z M 0.9375 -5.953125 "/></g></g></g><g fill="#000000" fill-opacity="1"><g transform="translate(185.195305, 89.379323)"><g><path d="M 2.171875 -9.75 L 6.859375 -9.609375 C 7.097656 -9.609375 7.300781 -9.53125 7.46875 -9.375 C 7.632812 -9.21875 7.710938 -9.015625 7.703125 -8.765625 C 7.691406 -8.535156 7.601562 -8.347656 7.4375 -8.203125 C 7.269531 -8.066406 7.066406 -8 6.828125 -8 L 2.90625 -8.109375 L 3.03125 -8.34375 L 2.953125 -5.625 L 2.84375 -5.734375 L 6.125 -5.640625 C 6.363281 -5.640625 6.5625 -5.554688 6.71875 -5.390625 C 6.882812 -5.234375 6.960938 -5.035156 6.953125 -4.796875 C 6.941406 -4.566406 6.851562 -4.378906 6.6875 -4.234375 C 6.519531 -4.097656 6.316406 -4.03125 6.078125 -4.03125 L 2.84375 -4.125 L 2.921875 -4.234375 L 2.84375 -1.40625 L 2.734375 -1.53125 L 6.640625 -1.421875 C 6.878906 -1.421875 7.078125 -1.335938 7.234375 -1.171875 C 7.398438 -1.003906 7.476562 -0.8125 7.46875 -0.59375 C 7.46875 -0.363281 7.378906 -0.175781 7.203125 -0.03125 C 7.035156 0.113281 6.832031 0.1875 6.59375 0.1875 L 1.90625 0.046875 C 1.664062 0.046875 1.460938 -0.0351562 1.296875 -0.203125 C 1.140625 -0.367188 1.066406 -0.578125 1.078125 -0.828125 L 1.296875 -8.921875 C 1.304688 -9.160156 1.394531 -9.359375 1.5625 -9.515625 C 1.726562 -9.671875 1.929688 -9.75 2.171875 -9.75 Z M 2.171875 -9.75 "/></g></g></g><g fill="#000000" fill-opacity="1"><g transform="translate(201.998566, 90.635131)"><g><path d="M 4.28125 0.921875 C 4.007812 0.867188 3.8125 0.742188 3.6875 0.546875 C 3.5625 0.359375 3.523438 0.140625 3.578125 -0.109375 L 5.296875 -8.03125 L 7.078125 -7.640625 L 5.359375 0.28125 C 5.304688 0.53125 5.175781 0.710938 4.96875 0.828125 C 4.769531 0.953125 4.539062 0.984375 4.28125 0.921875 Z M 2.984375 -7.734375 C 2.742188 -7.785156 2.554688 -7.898438 2.421875 -8.078125 C 2.296875 -8.253906 2.257812 -8.460938 2.3125 -8.703125 C 2.363281 -8.929688 2.484375 -9.101562 2.671875 -9.21875 C 2.867188 -9.332031 3.085938 -9.363281 3.328125 -9.3125 L 9.390625 -7.984375 C 9.640625 -7.929688 9.828125 -7.816406 9.953125 -7.640625 C 10.078125 -7.460938 10.113281 -7.253906 10.0625 -7.015625 C 10.007812 -6.773438 9.890625 -6.597656 9.703125 -6.484375 C 9.515625 -6.378906 9.296875 -6.351562 9.046875 -6.40625 Z M 2.984375 -7.734375 "/></g></g></g><g fill="#000000" fill-opacity="1"><g transform="translate(219.073162, 95.303483)"><g><path d="M 2.90625 0.234375 C 2.8125 0.460938 2.65625 0.617188 2.4375 0.703125 C 2.21875 0.796875 2 0.796875 1.78125 0.703125 C 1.539062 0.609375 1.375 0.457031 1.28125 0.25 C 1.1875 0.0390625 1.1875 -0.175781 1.28125 -0.40625 L 4.28125 -7.921875 C 4.363281 -8.148438 4.515625 -8.304688 4.734375 -8.390625 C 4.953125 -8.484375 5.1875 -8.484375 5.4375 -8.390625 C 5.644531 -8.304688 5.796875 -8.15625 5.890625 -7.9375 C 5.984375 -7.726562 5.988281 -7.507812 5.90625 -7.28125 Z M 2.90625 0.234375 "/></g></g></g><g fill="#000000" fill-opacity="1"><g transform="translate(230.766792, 100.532265)"><g><path d="M 11.59375 -3.890625 C 11.738281 -3.660156 11.757812 -3.421875 11.65625 -3.171875 C 11.5625 -2.929688 11.382812 -2.765625 11.125 -2.671875 C 10.9375 -2.585938 10.753906 -2.585938 10.578125 -2.671875 C 10.398438 -2.765625 10.253906 -2.898438 10.140625 -3.078125 C 9.992188 -3.273438 9.828125 -3.460938 9.640625 -3.640625 C 9.460938 -3.816406 9.253906 -3.976562 9.015625 -4.125 C 8.585938 -4.382812 8.160156 -4.546875 7.734375 -4.609375 C 7.316406 -4.679688 6.910156 -4.660156 6.515625 -4.546875 C 6.128906 -4.441406 5.769531 -4.253906 5.4375 -3.984375 C 5.101562 -3.710938 4.8125 -3.375 4.5625 -2.96875 C 4.269531 -2.476562 4.082031 -2.007812 4 -1.5625 C 3.925781 -1.113281 3.941406 -0.695312 4.046875 -0.3125 C 4.160156 0.0703125 4.347656 0.421875 4.609375 0.734375 C 4.867188 1.046875 5.191406 1.320312 5.578125 1.5625 C 5.804688 1.695312 6.039062 1.8125 6.28125 1.90625 C 6.519531 2 6.769531 2.050781 7.03125 2.0625 C 7.238281 2.082031 7.421875 2.15625 7.578125 2.28125 C 7.734375 2.40625 7.816406 2.566406 7.828125 2.765625 C 7.859375 3.078125 7.789062 3.320312 7.625 3.5 C 7.46875 3.6875 7.253906 3.769531 6.984375 3.75 C 6.710938 3.726562 6.445312 3.6875 6.1875 3.625 C 5.925781 3.5625 5.671875 3.476562 5.421875 3.375 C 5.179688 3.28125 4.941406 3.160156 4.703125 3.015625 C 4.140625 2.671875 3.65625 2.25 3.25 1.75 C 2.84375 1.257812 2.546875 0.710938 2.359375 0.109375 C 2.171875 -0.492188 2.125 -1.132812 2.21875 -1.8125 C 2.320312 -2.488281 2.585938 -3.1875 3.015625 -3.90625 C 3.390625 -4.519531 3.835938 -5.019531 4.359375 -5.40625 C 4.878906 -5.800781 5.445312 -6.070312 6.0625 -6.21875 C 6.6875 -6.363281 7.328125 -6.382812 7.984375 -6.28125 C 8.640625 -6.175781 9.273438 -5.9375 9.890625 -5.5625 C 10.253906 -5.34375 10.578125 -5.09375 10.859375 -4.8125 C 11.140625 -4.53125 11.382812 -4.222656 11.59375 -3.890625 Z M 11.59375 -3.890625 "/></g></g></g><g fill="#000000" fill-opacity="1"><g transform="translate(245.380244, 110.35407)"><g><path d="M 3.03125 2.921875 C 2.539062 2.484375 2.15625 2.03125 1.875 1.5625 C 1.601562 1.09375 1.425781 0.539062 1.34375 -0.09375 C 1.320312 -0.257812 1.332031 -0.410156 1.375 -0.546875 C 1.414062 -0.679688 1.476562 -0.796875 1.5625 -0.890625 C 1.707031 -1.054688 1.890625 -1.148438 2.109375 -1.171875 C 2.328125 -1.191406 2.523438 -1.117188 2.703125 -0.953125 C 2.835938 -0.835938 2.921875 -0.691406 2.953125 -0.515625 C 3.015625 -0.0664062 3.128906 0.328125 3.296875 0.671875 C 3.460938 1.023438 3.734375 1.375 4.109375 1.71875 C 4.367188 1.945312 4.640625 2.113281 4.921875 2.21875 C 5.210938 2.332031 5.484375 2.378906 5.734375 2.359375 C 5.992188 2.347656 6.203125 2.257812 6.359375 2.09375 C 6.546875 1.882812 6.640625 1.648438 6.640625 1.390625 C 6.640625 1.128906 6.554688 0.832031 6.390625 0.5 C 6.234375 0.164062 5.976562 -0.203125 5.625 -0.609375 C 5.300781 -0.992188 5.046875 -1.375 4.859375 -1.75 C 4.671875 -2.125 4.5625 -2.484375 4.53125 -2.828125 C 4.507812 -3.179688 4.554688 -3.519531 4.671875 -3.84375 C 4.785156 -4.164062 4.976562 -4.472656 5.25 -4.765625 C 5.65625 -5.222656 6.117188 -5.503906 6.640625 -5.609375 C 7.160156 -5.722656 7.691406 -5.6875 8.234375 -5.5 C 8.785156 -5.3125 9.300781 -5.003906 9.78125 -4.578125 C 10.226562 -4.171875 10.582031 -3.726562 10.84375 -3.25 C 11.101562 -2.769531 11.265625 -2.3125 11.328125 -1.875 C 11.390625 -1.539062 11.328125 -1.269531 11.140625 -1.0625 C 11.003906 -0.90625 10.816406 -0.820312 10.578125 -0.8125 C 10.347656 -0.800781 10.15625 -0.863281 10 -1 C 9.894531 -1.101562 9.828125 -1.21875 9.796875 -1.34375 C 9.773438 -1.53125 9.707031 -1.753906 9.59375 -2.015625 C 9.488281 -2.273438 9.359375 -2.523438 9.203125 -2.765625 C 9.046875 -3.015625 8.878906 -3.222656 8.703125 -3.390625 C 8.398438 -3.660156 8.109375 -3.847656 7.828125 -3.953125 C 7.554688 -4.054688 7.304688 -4.085938 7.078125 -4.046875 C 6.859375 -4.015625 6.671875 -3.910156 6.515625 -3.734375 C 6.328125 -3.523438 6.234375 -3.296875 6.234375 -3.046875 C 6.242188 -2.804688 6.328125 -2.539062 6.484375 -2.25 C 6.640625 -1.96875 6.847656 -1.648438 7.109375 -1.296875 C 7.460938 -0.859375 7.75 -0.445312 7.96875 -0.0625 C 8.1875 0.320312 8.328125 0.691406 8.390625 1.046875 C 8.453125 1.398438 8.425781 1.742188 8.3125 2.078125 C 8.195312 2.421875 7.976562 2.773438 7.65625 3.140625 C 7.25 3.585938 6.773438 3.863281 6.234375 3.96875 C 5.703125 4.070312 5.15625 4.023438 4.59375 3.828125 C 4.03125 3.640625 3.507812 3.335938 3.03125 2.921875 Z M 3.03125 2.921875 "/></g></g></g><g fill="#000000" fill-opacity="1"><g transform="translate(121.241254, 275.781345)"><g><path d="M 3.515625 2.609375 C 3.296875 2.453125 3.164062 2.257812 3.125 2.03125 C 3.09375 1.800781 3.148438 1.585938 3.296875 1.390625 L 8.140625 -5.109375 L 9.609375 -4.015625 L 4.765625 2.484375 C 4.617188 2.679688 4.425781 2.789062 4.1875 2.8125 C 3.945312 2.84375 3.722656 2.773438 3.515625 2.609375 Z M 5.921875 -5.796875 C 5.722656 -5.941406 5.601562 -6.125 5.5625 -6.34375 C 5.519531 -6.5625 5.570312 -6.769531 5.71875 -6.96875 C 5.863281 -7.15625 6.046875 -7.257812 6.265625 -7.28125 C 6.484375 -7.300781 6.691406 -7.238281 6.890625 -7.09375 L 11.859375 -3.390625 C 12.054688 -3.242188 12.175781 -3.0625 12.21875 -2.84375 C 12.257812 -2.625 12.203125 -2.414062 12.046875 -2.21875 C 11.910156 -2.03125 11.734375 -1.925781 11.515625 -1.90625 C 11.296875 -1.882812 11.085938 -1.945312 10.890625 -2.09375 Z M 5.921875 -5.796875 "/></g></g></g><g fill="#000000" fill-opacity="1"><g transform="translate(137.491735, 286.632043)"><g><path d="M 1.859375 0.890625 C 1.628906 0.773438 1.453125 0.597656 1.328125 0.359375 C 1.203125 0.128906 1.195312 -0.0976562 1.3125 -0.328125 L 4.796875 -7.625 C 4.898438 -7.84375 5.0625 -7.988281 5.28125 -8.0625 C 5.5 -8.132812 5.71875 -8.117188 5.9375 -8.015625 L 9.578125 -6.28125 C 10.003906 -6.070312 10.351562 -5.757812 10.625 -5.34375 C 10.90625 -4.925781 11.066406 -4.457031 11.109375 -3.9375 C 11.148438 -3.414062 11.046875 -2.890625 10.796875 -2.359375 C 10.640625 -2.046875 10.421875 -1.765625 10.140625 -1.515625 C 9.867188 -1.273438 9.566406 -1.085938 9.234375 -0.953125 C 8.898438 -0.816406 8.554688 -0.753906 8.203125 -0.765625 L 8.359375 -1.03125 C 8.523438 -0.789062 8.648438 -0.546875 8.734375 -0.296875 C 8.816406 -0.0546875 8.847656 0.179688 8.828125 0.421875 C 8.816406 0.660156 8.769531 0.898438 8.6875 1.140625 C 8.613281 1.378906 8.539062 1.578125 8.46875 1.734375 C 8.40625 1.890625 8.367188 2.03125 8.359375 2.15625 C 8.347656 2.289062 8.382812 2.414062 8.46875 2.53125 C 8.601562 2.726562 8.644531 2.941406 8.59375 3.171875 C 8.539062 3.398438 8.398438 3.554688 8.171875 3.640625 C 8.046875 3.703125 7.898438 3.71875 7.734375 3.6875 C 7.578125 3.65625 7.4375 3.585938 7.3125 3.484375 C 7.1875 3.378906 7.085938 3.285156 7.015625 3.203125 C 6.910156 3.046875 6.820312 2.847656 6.75 2.609375 C 6.6875 2.378906 6.675781 2.101562 6.71875 1.78125 C 6.757812 1.46875 6.890625 1.09375 7.109375 0.65625 C 7.171875 0.507812 7.207031 0.363281 7.21875 0.21875 C 7.226562 0.0703125 7.207031 -0.0664062 7.15625 -0.203125 C 7.101562 -0.335938 7.015625 -0.460938 6.890625 -0.578125 C 6.765625 -0.691406 6.609375 -0.789062 6.421875 -0.875 L 3.875 -2.09375 L 4.1875 -2.3125 L 2.890625 0.421875 C 2.773438 0.648438 2.625 0.804688 2.4375 0.890625 C 2.257812 0.984375 2.066406 0.984375 1.859375 0.890625 Z M 4.515625 -3.40625 L 7.4375 -2 C 7.601562 -1.925781 7.789062 -1.921875 8 -1.984375 C 8.207031 -2.054688 8.414062 -2.1875 8.625 -2.375 C 8.832031 -2.570312 9.003906 -2.816406 9.140625 -3.109375 C 9.316406 -3.472656 9.363281 -3.828125 9.28125 -4.171875 C 9.207031 -4.515625 9.050781 -4.742188 8.8125 -4.859375 L 5.90625 -6.265625 L 6.25 -6.59375 L 4.53125 -3.015625 Z M 4.515625 -3.40625 "/></g></g></g><g fill="#000000" fill-opacity="1"><g transform="translate(156.332774, 294.439121)"><g><path d="M 6.390625 -6.21875 L 1.703125 -0.0625 C 1.585938 0.0820312 1.453125 0.1875 1.296875 0.25 C 1.148438 0.3125 0.992188 0.320312 0.828125 0.28125 C 0.585938 0.21875 0.425781 0.109375 0.34375 -0.046875 C 0.257812 -0.210938 0.242188 -0.398438 0.296875 -0.609375 C 0.316406 -0.679688 0.359375 -0.757812 0.421875 -0.84375 L 5.875 -8.09375 C 5.976562 -8.257812 6.117188 -8.375 6.296875 -8.4375 C 6.472656 -8.5 6.648438 -8.492188 6.828125 -8.421875 C 6.984375 -8.378906 7.117188 -8.296875 7.234375 -8.171875 C 7.347656 -8.046875 7.414062 -7.882812 7.4375 -7.6875 L 8.734375 1.109375 C 8.742188 1.242188 8.738281 1.363281 8.71875 1.46875 C 8.65625 1.707031 8.523438 1.875 8.328125 1.96875 C 8.128906 2.070312 7.9375 2.097656 7.75 2.046875 C 7.582031 2.003906 7.445312 1.914062 7.34375 1.78125 C 7.238281 1.65625 7.171875 1.5 7.140625 1.3125 L 5.96875 -6.234375 Z M 2.546875 -1.625 L 3.6875 -2.984375 L 7.359375 -2.046875 L 7.203125 -0.4375 Z M 2.546875 -1.625 "/></g></g></g><g fill="#000000" fill-opacity="1"><g transform="translate(175.526478, 298.230247)"><g><path d="M 2.859375 -0.625 C 2.835938 -0.375 2.726562 -0.175781 2.53125 -0.03125 C 2.34375 0.113281 2.140625 0.175781 1.921875 0.15625 C 1.660156 0.132812 1.457031 0.0390625 1.3125 -0.125 C 1.164062 -0.300781 1.101562 -0.515625 1.125 -0.765625 L 1.8125 -8.828125 C 1.832031 -9.066406 1.929688 -9.257812 2.109375 -9.40625 C 2.285156 -9.5625 2.507812 -9.625 2.78125 -9.59375 C 2.988281 -9.582031 3.171875 -9.488281 3.328125 -9.3125 C 3.492188 -9.132812 3.566406 -8.925781 3.546875 -8.6875 Z M 2.859375 -0.625 "/></g></g></g><g fill="#000000" fill-opacity="1"><g transform="translate(190.044616, 298.823074)"><g><path d="M 7.59375 -10.5 C 7.8125 -10.519531 8 -10.460938 8.15625 -10.328125 C 8.3125 -10.203125 8.398438 -10.023438 8.421875 -9.796875 L 9.125 -1.671875 C 9.144531 -1.421875 9.082031 -1.207031 8.9375 -1.03125 C 8.789062 -0.851562 8.597656 -0.753906 8.359375 -0.734375 C 8.234375 -0.722656 8.101562 -0.734375 7.96875 -0.765625 C 7.84375 -0.796875 7.75 -0.84375 7.6875 -0.90625 L 1.578125 -7.375 L 1.921875 -7.640625 L 2.515625 -1 C 2.523438 -0.78125 2.460938 -0.585938 2.328125 -0.421875 C 2.203125 -0.265625 2.03125 -0.175781 1.8125 -0.15625 C 1.582031 -0.132812 1.390625 -0.191406 1.234375 -0.328125 C 1.078125 -0.472656 0.992188 -0.65625 0.984375 -0.875 L 0.265625 -9.015625 C 0.242188 -9.253906 0.304688 -9.460938 0.453125 -9.640625 C 0.609375 -9.816406 0.804688 -9.914062 1.046875 -9.9375 C 1.160156 -9.945312 1.289062 -9.929688 1.4375 -9.890625 C 1.582031 -9.847656 1.695312 -9.78125 1.78125 -9.6875 L 7.6875 -3.359375 L 7.46875 -3.171875 L 6.90625 -9.65625 C 6.882812 -9.882812 6.9375 -10.078125 7.0625 -10.234375 C 7.1875 -10.390625 7.363281 -10.476562 7.59375 -10.5 Z M 7.59375 -10.5 "/></g></g></g><g fill="#000000" fill-opacity="1"><g transform="translate(210.764932, 295.806245)"><g><path d="M 2.484375 -1.546875 C 2.546875 -1.304688 2.507812 -1.082031 2.375 -0.875 C 2.25 -0.675781 2.078125 -0.550781 1.859375 -0.5 C 1.609375 -0.425781 1.382812 -0.445312 1.1875 -0.5625 C 0.988281 -0.675781 0.859375 -0.851562 0.796875 -1.09375 L -1.28125 -8.921875 C -1.34375 -9.148438 -1.3125 -9.363281 -1.1875 -9.5625 C -1.070312 -9.757812 -0.882812 -9.894531 -0.625 -9.96875 C -0.414062 -10.03125 -0.207031 -10.003906 0 -9.890625 C 0.207031 -9.773438 0.34375 -9.601562 0.40625 -9.375 Z M 2.484375 -1.546875 "/></g></g></g><g fill="#000000" fill-opacity="1"><g transform="translate(224.627498, 291.452082)"><g><path d="M 3.59375 -12.453125 C 3.789062 -12.535156 3.984375 -12.539062 4.171875 -12.46875 C 4.367188 -12.40625 4.515625 -12.269531 4.609375 -12.0625 L 8.03125 -4.65625 C 8.132812 -4.425781 8.144531 -4.203125 8.0625 -3.984375 C 7.976562 -3.773438 7.832031 -3.617188 7.625 -3.515625 C 7.507812 -3.460938 7.382812 -3.425781 7.25 -3.40625 C 7.125 -3.394531 7.015625 -3.410156 6.921875 -3.453125 L -1.015625 -7.484375 L -0.765625 -7.859375 L 2.03125 -1.796875 C 2.125 -1.597656 2.132812 -1.398438 2.0625 -1.203125 C 1.988281 -1.003906 1.847656 -0.859375 1.640625 -0.765625 C 1.429688 -0.660156 1.234375 -0.644531 1.046875 -0.71875 C 0.859375 -0.800781 0.71875 -0.941406 0.625 -1.140625 L -2.796875 -8.5625 C -2.898438 -8.78125 -2.910156 -8.992188 -2.828125 -9.203125 C -2.742188 -9.421875 -2.59375 -9.582031 -2.375 -9.6875 C -2.257812 -9.738281 -2.128906 -9.769531 -1.984375 -9.78125 C -1.835938 -9.789062 -1.703125 -9.765625 -1.578125 -9.703125 L 6.09375 -5.765625 L 5.96875 -5.515625 L 3.234375 -11.421875 C 3.140625 -11.628906 3.125 -11.828125 3.1875 -12.015625 C 3.25 -12.203125 3.382812 -12.347656 3.59375 -12.453125 Z M 3.59375 -12.453125 "/></g></g></g><g fill="#000000" fill-opacity="1"><g transform="translate(243.290709, 281.598986)"><g><path d="M 4.640625 -3.25 C 4.066406 -2.832031 3.457031 -2.546875 2.8125 -2.390625 C 2.164062 -2.234375 1.515625 -2.203125 0.859375 -2.296875 C 0.210938 -2.398438 -0.394531 -2.613281 -0.96875 -2.9375 C -1.539062 -3.257812 -2.035156 -3.707031 -2.453125 -4.28125 C -2.867188 -4.84375 -3.148438 -5.445312 -3.296875 -6.09375 C -3.441406 -6.738281 -3.460938 -7.382812 -3.359375 -8.03125 C -3.265625 -8.6875 -3.046875 -9.300781 -2.703125 -9.875 C -2.359375 -10.445312 -1.898438 -10.941406 -1.328125 -11.359375 C -0.972656 -11.617188 -0.601562 -11.832031 -0.21875 -12 C 0.164062 -12.164062 0.550781 -12.28125 0.9375 -12.34375 C 1.09375 -12.351562 1.234375 -12.332031 1.359375 -12.28125 C 1.492188 -12.226562 1.601562 -12.148438 1.6875 -12.046875 C 1.820312 -11.867188 1.878906 -11.660156 1.859375 -11.421875 C 1.847656 -11.191406 1.75 -11.007812 1.5625 -10.875 C 1.5 -10.820312 1.425781 -10.78125 1.34375 -10.75 C 1.269531 -10.71875 1.195312 -10.695312 1.125 -10.6875 C 0.875 -10.632812 0.625 -10.550781 0.375 -10.4375 C 0.132812 -10.332031 -0.101562 -10.191406 -0.34375 -10.015625 C -0.820312 -9.660156 -1.171875 -9.207031 -1.390625 -8.65625 C -1.617188 -8.113281 -1.703125 -7.550781 -1.640625 -6.96875 C -1.578125 -6.382812 -1.363281 -5.847656 -1 -5.359375 C -0.632812 -4.859375 -0.179688 -4.488281 0.359375 -4.25 C 0.898438 -4.019531 1.460938 -3.929688 2.046875 -3.984375 C 2.628906 -4.046875 3.160156 -4.253906 3.640625 -4.609375 C 3.867188 -4.773438 4.097656 -4.976562 4.328125 -5.21875 C 4.566406 -5.457031 4.75 -5.679688 4.875 -5.890625 L 5.03125 -5.46875 L 3.609375 -7.40625 L 3.921875 -7.375 L 2.671875 -6.453125 C 2.472656 -6.304688 2.257812 -6.25 2.03125 -6.28125 C 1.8125 -6.320312 1.628906 -6.4375 1.484375 -6.625 C 1.335938 -6.820312 1.28125 -7.03125 1.3125 -7.25 C 1.351562 -7.476562 1.472656 -7.664062 1.671875 -7.8125 L 3.53125 -9.171875 C 3.71875 -9.316406 3.921875 -9.367188 4.140625 -9.328125 C 4.367188 -9.285156 4.550781 -9.171875 4.6875 -8.984375 L 6.453125 -6.59375 C 6.566406 -6.4375 6.625 -6.285156 6.625 -6.140625 C 6.632812 -5.992188 6.617188 -5.859375 6.578125 -5.734375 C 6.378906 -5.265625 6.117188 -4.816406 5.796875 -4.390625 C 5.484375 -3.960938 5.097656 -3.582031 4.640625 -3.25 Z M 4.640625 -3.25 "/></g></g></g></svg>