<svg xmlns="http://www.w3.org/2000/svg" xmlns:xlink="http://www.w3.org/1999/xlink" width="300" zoomAndPan="magnify" viewBox="0 0 224.87999 225" height="300" preserveAspectRatio="none" version="1.0"><defs><clipPath id="1c70798032"><path d="M 21 123.539062 L 224.761719 123.539062 L 224.761719 224.734375 L 21 224.734375 Z M 21 123.539062 " clip-rule="nonzero"/></clipPath><clipPath id="90b824a3a7"><path d="M 0 133 L 224.761719 133 L 224.761719 224.734375 L 0 224.734375 Z M 0 133 " clip-rule="nonzero"/></clipPath></defs><g clip-path="url(#1c70798032)"><path fill="#977a1c" d="M 22.257812 196.171875 C 24.636719 185.714844 30.925781 176.492188 39.046875 169.402344 C 39.632812 168.890625 40.230469 168.386719 40.839844 167.894531 C 41.449219 167.402344 42.070312 166.914062 42.703125 166.441406 C 43.527344 165.828125 44.363281 165.226562 45.214844 164.652344 C 55.089844 157.976562 67.183594 153.875 78.972656 155.636719 C 90.941406 157.421875 101.15625 164.851562 111.445312 171.210938 C 120.4375 176.773438 130.664062 181.792969 141.027344 181.417969 C 141.480469 181.40625 141.941406 181.378906 142.398438 181.339844 C 142.863281 181.296875 143.328125 181.25 143.792969 181.191406 C 144.367188 181.113281 144.945312 181.019531 145.519531 180.90625 C 154.054688 179.238281 161.324219 173.597656 167.125 167.117188 C 172.921875 160.636719 177.566406 153.210938 183.101562 146.5 C 186.273438 142.65625 189.773438 139.03125 193.609375 135.851562 C 194.113281 135.433594 194.621094 135.023438 195.136719 134.617188 C 195.636719 134.226562 196.144531 133.847656 196.652344 133.472656 C 199.582031 131.324219 202.691406 129.449219 205.996094 127.921875 C 211.882812 125.199219 218.421875 123.675781 224.878906 123.796875 L 224.878906 224.8125 L 24.925781 224.8125 C 21.332031 215.667969 20.085938 205.707031 22.257812 196.171875 Z M 22.257812 196.171875 " fill-opacity="1" fill-rule="nonzero"/></g><g clip-path="url(#90b824a3a7)"><path fill="#000000" d="M 0 217.632812 C 0.0820312 199.386719 11.199219 183.28125 26.214844 173.648438 C 31.246094 170.421875 36.847656 167.855469 42.703125 166.441406 C 46.753906 165.46875 50.921875 165.039062 55.09375 165.328125 C 64.558594 165.984375 73.066406 170.449219 80.949219 175.421875 C 89.257812 180.660156 97.273438 186.632812 106.65625 189.867188 C 111.300781 191.46875 116.21875 192.351562 121.132812 191.863281 C 125.753906 191.40625 130.109375 189.625 133.984375 187.117188 C 136.546875 185.464844 138.867188 183.535156 141.023438 181.425781 C 145.945312 176.597656 149.976562 170.824219 153.957031 165.222656 C 159.507812 157.417969 165.375 149.851562 172.972656 143.90625 C 179.871094 138.507812 187.941406 134.601562 196.648438 133.480469 C 197.371094 133.390625 198.101562 133.3125 198.828125 133.257812 C 203.867188 132.886719 209.011719 133.515625 213.75 135.304688 C 217.832031 136.847656 221.527344 139.152344 224.875 141.929688 L 224.875 144.003906 C 224.660156 144.019531 224.429688 143.949219 224.226562 143.773438 C 222.46875 142.257812 220.605469 140.882812 218.613281 139.691406 C 211.007812 135.128906 202.125 134.074219 193.605469 135.859375 C 192.421875 136.105469 191.246094 136.40625 190.085938 136.761719 C 181.195312 139.476562 173.492188 145.082031 167.085938 151.703125 C 160.335938 158.683594 155.269531 166.964844 149.371094 174.628906 C 147.628906 176.886719 145.78125 179.109375 143.796875 181.195312 C 139.476562 185.742188 134.5 189.65625 128.589844 191.941406 C 109.765625 199.21875 92.492188 184.476562 77.414062 175.386719 C 69.300781 170.5 60.527344 166.6875 50.867188 167.113281 C 46.828125 167.292969 42.867188 168.105469 39.050781 169.402344 C 33.449219 171.308594 28.167969 174.265625 23.46875 177.78125 C 16.75 182.804688 11 189.25 7.097656 196.6875 C 2.578125 205.28125 0.992188 214.96875 2.285156 224.570312 C 2.292969 224.65625 2.296875 224.734375 2.289062 224.8125 L 0.492188 224.8125 C 0.175781 222.429688 -0.0078125 220.035156 0 217.632812 Z M 0 217.632812 " fill-opacity="1" fill-rule="nonzero"/></g></svg>